<svg width="536" height="450" viewBox="0 0 536 450" fill="none" xmlns="http://www.w3.org/2000/svg">
<rect x="2.5" y="2.5" width="531" height="445" rx="5.5" stroke="url(#paint0_linear_467_72)" stroke-width="5"/>
<path d="M144.618 253.081V199.658H126.212V188.605H175.356V199.658H156.49V253.081H144.618ZM191.503 254.002C186.41 254.002 181.901 252.958 177.974 250.871C174.109 248.721 171.072 245.805 168.863 242.12C166.716 238.375 165.642 234.076 165.642 229.225C165.642 225.418 166.256 221.949 167.483 218.817C168.71 215.685 170.428 212.983 172.637 210.711C174.845 208.378 177.453 206.597 180.459 205.369C183.527 204.08 186.84 203.435 190.398 203.435C193.65 203.435 196.626 204.049 199.325 205.277C202.086 206.505 204.479 208.194 206.504 210.343C208.528 212.431 210.062 214.948 211.105 217.896C212.21 220.782 212.731 223.944 212.67 227.383L212.578 231.436H173.373L171.164 223.607H203.099L201.718 225.172V223.054C201.534 221.212 200.921 219.584 199.878 218.172C198.835 216.698 197.485 215.562 195.828 214.764C194.233 213.904 192.454 213.475 190.49 213.475C187.484 213.475 184.938 214.058 182.852 215.225C180.766 216.33 179.171 217.988 178.066 220.199C177.023 222.409 176.502 225.142 176.502 228.396C176.502 231.528 177.146 234.26 178.435 236.594C179.784 238.927 181.686 240.739 184.14 242.028C186.595 243.318 189.447 243.962 192.699 243.962C194.969 243.962 197.055 243.594 198.957 242.857C200.921 242.12 203.007 240.8 205.215 238.896L210.737 246.634C209.081 248.169 207.179 249.489 205.031 250.594C202.945 251.638 200.736 252.467 198.405 253.081C196.074 253.695 193.773 254.002 191.503 254.002ZM242.252 254.002C240.104 254.002 238.018 253.695 235.994 253.081C233.969 252.406 232.098 251.515 230.38 250.41C228.723 249.305 227.343 248.077 226.238 246.726C225.134 245.313 224.398 243.901 224.03 242.489L226.699 241.291L226.422 252.805H215.563V184.921H226.791V215.685L224.858 214.856C225.165 213.383 225.84 212.001 226.883 210.711C227.926 209.36 229.245 208.163 230.84 207.119C232.435 206.014 234.184 205.154 236.086 204.54C237.988 203.865 239.951 203.527 241.976 203.527C246.27 203.527 250.074 204.632 253.387 206.843C256.762 208.992 259.4 211.97 261.302 215.777C263.265 219.523 264.247 223.852 264.247 228.765C264.247 233.616 263.296 237.945 261.394 241.752C259.492 245.559 256.854 248.568 253.479 250.778C250.166 252.928 246.424 254.002 242.252 254.002ZM239.951 244.055C242.528 244.055 244.828 243.41 246.853 242.12C248.878 240.769 250.473 238.958 251.639 236.686C252.804 234.352 253.387 231.712 253.387 228.765C253.387 225.756 252.804 223.115 251.639 220.843C250.534 218.51 248.97 216.698 246.945 215.409C244.921 214.119 242.589 213.475 239.951 213.475C237.251 213.475 234.889 214.119 232.865 215.409C230.84 216.698 229.245 218.51 228.079 220.843C226.913 223.115 226.33 225.756 226.33 228.765C226.33 231.712 226.913 234.352 228.079 236.686C229.245 238.958 230.84 240.769 232.865 242.12C234.889 243.41 237.251 244.055 239.951 244.055ZM293.896 254.002C291.749 254.002 289.663 253.695 287.638 253.081C285.614 252.406 283.742 251.515 282.024 250.41C280.368 249.305 278.987 248.077 277.883 246.726C276.779 245.313 276.042 243.901 275.674 242.489L278.343 241.291L278.067 252.805H267.208V184.921H278.435V215.685L276.503 214.856C276.809 213.383 277.484 212.001 278.527 210.711C279.57 209.36 280.889 208.163 282.485 207.119C284.08 206.014 285.828 205.154 287.73 204.54C289.632 203.865 291.595 203.527 293.62 203.527C297.915 203.527 301.719 204.632 305.032 206.843C308.406 208.992 311.044 211.97 312.946 215.777C314.91 219.523 315.891 223.852 315.891 228.765C315.891 233.616 314.94 237.945 313.038 241.752C311.137 245.559 308.498 248.568 305.124 250.778C301.811 252.928 298.068 254.002 293.896 254.002ZM291.595 244.055C294.172 244.055 296.473 243.41 298.498 242.12C300.522 240.769 302.118 238.958 303.283 236.686C304.449 234.352 305.032 231.712 305.032 228.765C305.032 225.756 304.449 223.115 303.283 220.843C302.179 218.51 300.614 216.698 298.59 215.409C296.565 214.119 294.234 213.475 291.595 213.475C288.896 213.475 286.534 214.119 284.509 215.409C282.484 216.698 280.889 218.51 279.724 220.843C278.558 223.115 277.975 225.756 277.975 228.765C277.975 231.712 278.558 234.352 279.724 236.686C280.889 238.958 282.484 240.769 284.509 242.12C286.534 243.41 288.896 244.055 291.595 244.055ZM318.944 253.081V184.921H330.171V253.081H318.944ZM358.267 254.002C353.175 254.002 348.666 252.958 344.739 250.871C340.874 248.721 337.837 245.805 335.628 242.12C333.481 238.375 332.407 234.076 332.407 229.225C332.407 225.418 333.021 221.949 334.248 218.817C335.475 215.685 337.193 212.983 339.401 210.711C341.61 208.378 344.218 206.597 347.224 205.369C350.291 204.08 353.605 203.435 357.163 203.435C360.415 203.435 363.39 204.049 366.09 205.277C368.851 206.505 371.244 208.194 373.268 210.343C375.293 212.431 376.827 214.948 377.87 217.896C378.974 220.782 379.496 223.944 379.434 227.383L379.342 231.436H340.138L337.929 223.607H369.863L368.483 225.172V223.054C368.299 221.212 367.685 219.584 366.642 218.172C365.599 216.698 364.249 215.562 362.593 214.764C360.998 213.904 359.218 213.475 357.255 213.475C354.249 213.475 351.703 214.058 349.617 215.225C347.531 216.33 345.935 217.988 344.831 220.199C343.788 222.409 343.267 225.142 343.267 228.396C343.267 231.528 343.911 234.26 345.199 236.594C346.549 238.927 348.451 240.739 350.905 242.028C353.359 243.318 356.212 243.962 359.464 243.962C361.734 243.962 363.82 243.594 365.722 242.857C367.685 242.12 369.771 240.8 371.98 238.896L377.502 246.634C375.845 248.169 373.943 249.489 371.796 250.594C369.71 251.638 367.501 252.467 365.17 253.081C362.838 253.695 360.538 254.002 358.267 254.002Z" fill="url(#paint1_linear_467_72)"/>
<circle cx="399" cy="241" r="13" fill="#CB03EC"/>
<defs>
<linearGradient id="paint0_linear_467_72" x1="0" y1="0" x2="615.429" y2="183.261" gradientUnits="userSpaceOnUse">
<stop offset="0.227083" stop-color="white" stop-opacity="0.2"/>
<stop offset="0.419792" stop-color="white" stop-opacity="0.5"/>
<stop offset="0.555208" stop-color="white" stop-opacity="0.2"/>
</linearGradient>
<linearGradient id="paint1_linear_467_72" x1="234.286" y1="166.73" x2="453.993" y2="375.706" gradientUnits="userSpaceOnUse">
<stop stop-color="white"/>
<stop offset="0.86409" stop-color="white" stop-opacity="0.22"/>
<stop offset="1" stop-color="white" stop-opacity="0"/>
</linearGradient>
</defs>
</svg>
