<svg width="527" height="527" viewBox="0 0 527 527" fill="none" xmlns="http://www.w3.org/2000/svg">
<g filter="url(#filter0_d_471_103)">
<rect x="24" y="12" width="479" height="479" rx="8" fill="url(#paint0_linear_471_103)"/>
</g>
<rect x="26.5" y="14.5" width="474" height="474" rx="5.5" stroke="url(#paint1_linear_471_103)" stroke-width="5"/>
<path d="M191.04 223.12V154.96L195.48 158.32L178.92 167.08L175.44 155.8L197.88 143.8H204.12V223.12H191.04ZM177.72 229V216.52H217.8V229H177.72ZM261.36 230.2C254.96 230.2 249.44 228.44 244.8 224.92C240.24 221.4 236.72 216.44 234.24 210.04C231.76 203.56 230.52 195.88 230.52 187C230.52 178.12 231.76 170.48 234.24 164.08C236.72 157.6 240.24 152.6 244.8 149.08C249.44 145.56 254.96 143.8 261.36 143.8C267.76 143.8 273.28 145.56 277.92 149.08C282.56 152.6 286.12 157.6 288.6 164.08C291.08 170.48 292.32 178.12 292.32 187C292.32 195.88 291.08 203.56 288.6 210.04C286.12 216.44 282.56 221.4 277.92 224.92C273.28 228.44 267.76 230.2 261.36 230.2ZM261.36 218.44C267.2 218.44 271.72 215.72 274.92 210.28C278.12 204.76 279.72 197 279.72 187C279.72 177 278.12 169.28 274.92 163.84C271.72 158.32 267.2 155.56 261.36 155.56C255.52 155.56 251 158.32 247.8 163.84C244.6 169.28 243 177 243 187C243 197 244.6 204.76 247.8 210.28C251 215.72 255.52 218.44 261.36 218.44ZM303.291 200.8V190H363.411V200.8H303.291ZM326.931 223.96V166H339.531V223.96H326.931Z" fill="url(#paint2_linear_471_103)"/>
<path d="M163.136 335V318.597L163.465 320.9L150.164 302.1H159.282L169.387 316.576L165.298 316.435L174.369 302.1H183.252L170.515 321.417L171.22 318.174V335H163.136ZM186.812 335V302.1H209.748V308.962H194.661V328.138H210.265V335H186.812ZM190.619 321.558V314.978H207.68V321.558H190.619ZM212.796 335L225.815 302.1H232.63L245.555 335H237.471L231.22 318.315C231.001 317.657 230.75 316.952 230.468 316.2C230.218 315.448 229.967 314.665 229.716 313.85C229.466 313.035 229.231 312.252 229.011 311.5C228.792 310.748 228.604 310.043 228.447 309.385L229.81 309.338C229.622 310.121 229.419 310.889 229.199 311.641C228.98 312.393 228.745 313.145 228.494 313.897C228.244 314.649 227.977 315.401 227.695 316.153C227.445 316.874 227.178 317.626 226.896 318.409L220.692 335H212.796ZM219 328.702L221.538 322.592H236.578L239.116 328.702H219ZM249.437 335V302.1H264.336C266.466 302.1 268.378 302.554 270.07 303.463C271.762 304.372 273.093 305.625 274.065 307.223C275.067 308.79 275.569 310.591 275.569 312.628C275.569 314.696 275.067 316.545 274.065 318.174C273.093 319.803 271.762 321.104 270.07 322.075C268.378 323.015 266.466 323.485 264.336 323.485H257.098V335H249.437ZM267.72 335L259.354 320.101L267.579 318.926L276.885 335.047L267.72 335ZM257.098 317.234H263.631C264.445 317.234 265.15 317.062 265.746 316.717C266.372 316.341 266.842 315.84 267.156 315.213C267.5 314.586 267.673 313.866 267.673 313.051C267.673 312.205 267.469 311.469 267.062 310.842C266.686 310.215 266.137 309.73 265.417 309.385C264.727 309.009 263.897 308.821 262.926 308.821H257.098V317.234ZM293.261 335.47C290.002 335.47 287.245 334.906 284.989 333.778C282.764 332.619 280.853 330.989 279.255 328.89L284.143 323.391C285.678 325.49 287.229 326.9 288.796 327.621C290.362 328.342 291.976 328.702 293.637 328.702C294.483 328.702 295.235 328.592 295.893 328.373C296.582 328.154 297.115 327.84 297.491 327.433C297.898 326.994 298.102 326.477 298.102 325.882C298.102 325.412 297.976 324.989 297.726 324.613C297.506 324.237 297.193 323.908 296.786 323.626C296.378 323.344 295.908 323.093 295.376 322.874C294.843 322.623 294.248 322.42 293.59 322.263C292.963 322.106 292.321 321.965 291.663 321.84C289.845 321.464 288.263 320.978 286.916 320.383C285.6 319.756 284.487 319.02 283.579 318.174C282.701 317.297 282.043 316.31 281.605 315.213C281.166 314.085 280.947 312.816 280.947 311.406C280.947 309.401 281.511 307.646 282.639 306.142C283.798 304.638 285.318 303.463 287.198 302.617C289.078 301.771 291.114 301.348 293.308 301.348C296.504 301.348 299.073 301.865 301.016 302.899C302.99 303.902 304.556 305.296 305.716 307.082L300.734 311.923C299.762 310.67 298.65 309.73 297.397 309.103C296.175 308.476 294.89 308.163 293.543 308.163C292.634 308.163 291.835 308.273 291.146 308.492C290.456 308.711 289.924 309.04 289.548 309.479C289.203 309.886 289.031 310.388 289.031 310.983C289.031 311.484 289.172 311.939 289.454 312.346C289.767 312.722 290.19 313.051 290.723 313.333C291.255 313.615 291.866 313.866 292.556 314.085C293.245 314.273 293.966 314.43 294.718 314.555C296.441 314.9 297.992 315.354 299.371 315.918C300.781 316.482 301.987 317.187 302.99 318.033C303.992 318.848 304.76 319.819 305.293 320.947C305.857 322.044 306.139 323.313 306.139 324.754C306.139 327.01 305.59 328.937 304.494 330.535C303.397 332.133 301.877 333.355 299.935 334.201C297.992 335.047 295.767 335.47 293.261 335.47ZM341.705 335.47C339.23 335.47 336.943 335.047 334.843 334.201C332.775 333.355 330.974 332.18 329.438 330.676C327.934 329.141 326.759 327.339 325.913 325.271C325.067 323.172 324.644 320.884 324.644 318.409C324.644 315.965 325.067 313.709 325.913 311.641C326.759 309.542 327.934 307.724 329.438 306.189C330.974 304.654 332.775 303.463 334.843 302.617C336.943 301.771 339.23 301.348 341.705 301.348C344.149 301.348 346.405 301.771 348.473 302.617C350.541 303.463 352.327 304.654 353.831 306.189C355.367 307.724 356.557 309.542 357.403 311.641C358.249 313.709 358.672 315.981 358.672 318.456C358.672 320.9 358.249 323.156 357.403 325.224C356.557 327.292 355.367 329.094 353.831 330.629C352.327 332.164 350.541 333.355 348.473 334.201C346.405 335.047 344.149 335.47 341.705 335.47ZM341.705 327.903C342.99 327.903 344.165 327.668 345.23 327.198C346.296 326.728 347.22 326.07 348.003 325.224C348.818 324.378 349.445 323.375 349.883 322.216C350.322 321.057 350.541 319.803 350.541 318.456C350.541 317.077 350.322 315.808 349.883 314.649C349.445 313.49 348.818 312.487 348.003 311.641C347.22 310.764 346.296 310.09 345.23 309.62C344.165 309.15 342.99 308.915 341.705 308.915C340.421 308.915 339.23 309.15 338.133 309.62C337.068 310.09 336.128 310.764 335.313 311.641C334.53 312.487 333.919 313.49 333.48 314.649C333.042 315.808 332.822 317.077 332.822 318.456C332.822 320.273 333.198 321.903 333.95 323.344C334.734 324.754 335.783 325.866 337.099 326.681C338.447 327.496 339.982 327.903 341.705 327.903ZM364.542 335V302.1H372.579V335H364.542ZM368.302 322.404V315.683H385.41V322.404H368.302ZM368.302 309.197V302.1H387.29V309.197H368.302ZM108.798 394V387.232H114.344V367.868H108.798V361.1H127.927V367.868H122.381V387.232H127.927V394H108.798ZM135.259 394V361.1H142.45L159.746 384.553L158.195 384.365C157.976 382.61 157.788 380.981 157.631 379.477C157.474 377.942 157.365 376.344 157.302 374.683C157.271 373.022 157.255 371.111 157.255 368.949V361.1H165.057V394H157.772L139.818 369.842L142.121 370.171C142.34 372.082 142.513 373.665 142.638 374.918C142.763 376.171 142.857 377.252 142.92 378.161C142.983 379.038 143.03 379.869 143.061 380.652C143.092 381.404 143.108 382.25 143.108 383.19V394H135.259ZM172.997 394V361.1H180.188L197.484 384.553L195.933 384.365C195.714 382.61 195.526 380.981 195.369 379.477C195.212 377.942 195.103 376.344 195.04 374.683C195.009 373.022 194.993 371.111 194.993 368.949V361.1H202.795V394H195.51L177.556 369.842L179.859 370.171C180.078 372.082 180.251 373.665 180.376 374.918C180.501 376.171 180.595 377.252 180.658 378.161C180.721 379.038 180.768 379.869 180.799 380.652C180.83 381.404 180.846 382.25 180.846 383.19V394H172.997ZM225.728 394.47C223.253 394.47 220.965 394.047 218.866 393.201C216.798 392.355 214.996 391.18 213.461 389.676C211.957 388.141 210.782 386.339 209.936 384.271C209.09 382.172 208.667 379.884 208.667 377.409C208.667 374.965 209.09 372.709 209.936 370.641C210.782 368.542 211.957 366.724 213.461 365.189C214.996 363.654 216.798 362.463 218.866 361.617C220.965 360.771 223.253 360.348 225.728 360.348C228.172 360.348 230.428 360.771 232.496 361.617C234.564 362.463 236.35 363.654 237.854 365.189C239.389 366.724 240.58 368.542 241.426 370.641C242.272 372.709 242.695 374.981 242.695 377.456C242.695 379.9 242.272 382.156 241.426 384.224C240.58 386.292 239.389 388.094 237.854 389.629C236.35 391.164 234.564 392.355 232.496 393.201C230.428 394.047 228.172 394.47 225.728 394.47ZM225.728 386.903C227.013 386.903 228.188 386.668 229.253 386.198C230.318 385.728 231.243 385.07 232.026 384.224C232.841 383.378 233.467 382.375 233.906 381.216C234.345 380.057 234.564 378.803 234.564 377.456C234.564 376.077 234.345 374.808 233.906 373.649C233.467 372.49 232.841 371.487 232.026 370.641C231.243 369.764 230.318 369.09 229.253 368.62C228.188 368.15 227.013 367.915 225.728 367.915C224.443 367.915 223.253 368.15 222.156 368.62C221.091 369.09 220.151 369.764 219.336 370.641C218.553 371.487 217.942 372.49 217.503 373.649C217.064 374.808 216.845 376.077 216.845 377.456C216.845 379.273 217.221 380.903 217.973 382.344C218.756 383.754 219.806 384.866 221.122 385.681C222.469 386.496 224.005 386.903 225.728 386.903ZM256.448 394L243.288 361.1H251.654L257.952 377.691C258.328 378.662 258.641 379.524 258.892 380.276C259.174 381.028 259.409 381.733 259.597 382.391C259.816 383.018 260.02 383.66 260.208 384.318C260.396 384.945 260.6 385.665 260.819 386.48H259.362C259.644 385.383 259.91 384.412 260.161 383.566C260.412 382.72 260.694 381.843 261.007 380.934C261.32 380.025 261.712 378.944 262.182 377.691L268.245 361.1H276.423L263.216 394H256.448ZM272.942 394L285.961 361.1H292.776L305.701 394H297.617L291.366 377.315C291.147 376.657 290.896 375.952 290.614 375.2C290.364 374.448 290.113 373.665 289.862 372.85C289.612 372.035 289.377 371.252 289.157 370.5C288.938 369.748 288.75 369.043 288.593 368.385L289.956 368.338C289.768 369.121 289.565 369.889 289.345 370.641C289.126 371.393 288.891 372.145 288.64 372.897C288.39 373.649 288.123 374.401 287.841 375.153C287.591 375.874 287.324 376.626 287.042 377.409L280.838 394H272.942ZM279.146 387.702L281.684 381.592H296.724L299.262 387.702H279.146ZM314.386 394V368.197H304.704V361.1H332.434V368.197H322.423V394H314.386ZM337.209 394V387.232H342.755V367.868H337.209V361.1H356.338V367.868H350.792V387.232H356.338V394H337.209ZM377.975 394.47C375.499 394.47 373.212 394.047 371.113 393.201C369.045 392.355 367.243 391.18 365.708 389.676C364.204 388.141 363.029 386.339 362.183 384.271C361.337 382.172 360.914 379.884 360.914 377.409C360.914 374.965 361.337 372.709 362.183 370.641C363.029 368.542 364.204 366.724 365.708 365.189C367.243 363.654 369.045 362.463 371.113 361.617C373.212 360.771 375.499 360.348 377.975 360.348C380.419 360.348 382.675 360.771 384.743 361.617C386.811 362.463 388.597 363.654 390.101 365.189C391.636 366.724 392.827 368.542 393.673 370.641C394.519 372.709 394.942 374.981 394.942 377.456C394.942 379.9 394.519 382.156 393.673 384.224C392.827 386.292 391.636 388.094 390.101 389.629C388.597 391.164 386.811 392.355 384.743 393.201C382.675 394.047 380.419 394.47 377.975 394.47ZM377.975 386.903C379.259 386.903 380.434 386.668 381.5 386.198C382.565 385.728 383.489 385.07 384.273 384.224C385.087 383.378 385.714 382.375 386.153 381.216C386.591 380.057 386.811 378.803 386.811 377.456C386.811 376.077 386.591 374.808 386.153 373.649C385.714 372.49 385.087 371.487 384.273 370.641C383.489 369.764 382.565 369.09 381.5 368.62C380.434 368.15 379.259 367.915 377.975 367.915C376.69 367.915 375.499 368.15 374.403 368.62C373.337 369.09 372.397 369.764 371.583 370.641C370.799 371.487 370.188 372.49 369.75 373.649C369.311 374.808 369.092 376.077 369.092 377.456C369.092 379.273 369.468 380.903 370.22 382.344C371.003 383.754 372.053 384.866 373.369 385.681C374.716 386.496 376.251 386.903 377.975 386.903ZM400.811 394V361.1H408.002L425.298 384.553L423.747 384.365C423.528 382.61 423.34 380.981 423.183 379.477C423.027 377.942 422.917 376.344 422.854 374.683C422.823 373.022 422.807 371.111 422.807 368.949V361.1H430.609V394H423.324L405.37 369.842L407.673 370.171C407.893 372.082 408.065 373.665 408.19 374.918C408.316 376.171 408.41 377.252 408.472 378.161C408.535 379.038 408.582 379.869 408.613 380.652C408.645 381.404 408.66 382.25 408.66 383.19V394H400.811Z" fill="url(#paint3_linear_471_103)"/>
<defs>
<filter id="filter0_d_471_103" x="0" y="0" width="527" height="527" filterUnits="userSpaceOnUse" color-interpolation-filters="sRGB">
<feFlood flood-opacity="0" result="BackgroundImageFix"/>
<feColorMatrix in="SourceAlpha" type="matrix" values="0 0 0 0 0 0 0 0 0 0 0 0 0 0 0 0 0 0 127 0" result="hardAlpha"/>
<feMorphology radius="4" operator="dilate" in="SourceAlpha" result="effect1_dropShadow_471_103"/>
<feOffset dy="12"/>
<feGaussianBlur stdDeviation="10"/>
<feComposite in2="hardAlpha" operator="out"/>
<feColorMatrix type="matrix" values="0 0 0 0 0 0 0 0 0 0 0 0 0 0 0 0 0 0 0.05 0"/>
<feBlend mode="normal" in2="BackgroundImageFix" result="effect1_dropShadow_471_103"/>
<feBlend mode="normal" in="SourceGraphic" in2="effect1_dropShadow_471_103" result="shape"/>
</filter>
<linearGradient id="paint0_linear_471_103" x1="24" y1="12" x2="586.792" y2="150.491" gradientUnits="userSpaceOnUse">
<stop offset="0.211458"/>
<stop offset="0.367708" stop-color="#121212"/>
<stop offset="0.64375"/>
</linearGradient>
<linearGradient id="paint1_linear_471_103" x1="24" y1="12" x2="587.529" y2="152.882" gradientUnits="userSpaceOnUse">
<stop offset="0.227083" stop-color="white" stop-opacity="0.2"/>
<stop offset="0.419792" stop-color="white" stop-opacity="0.5"/>
<stop offset="0.555208" stop-color="white" stop-opacity="0.2"/>
</linearGradient>
<linearGradient id="paint2_linear_471_103" x1="396" y1="115.5" x2="150" y2="118" gradientUnits="userSpaceOnUse">
<stop stop-color="#B0ADAD"/>
<stop offset="0.291667" stop-color="white"/>
<stop offset="0.494792" stop-color="white"/>
<stop offset="0.738871" stop-color="white"/>
<stop offset="1" stop-color="white" stop-opacity="0"/>
</linearGradient>
<linearGradient id="paint3_linear_471_103" x1="510.781" y1="309.25" x2="24.0133" y2="328.857" gradientUnits="userSpaceOnUse">
<stop offset="0.03125" stop-color="#343232"/>
<stop offset="0.458333" stop-color="white"/>
<stop offset="0.578125" stop-color="white"/>
<stop offset="0.859375" stop-color="white"/>
<stop offset="1" stop-color="white" stop-opacity="0"/>
</linearGradient>
</defs>
</svg>
