<svg width="133" height="37" viewBox="0 0 133 37" fill="none" xmlns="http://www.w3.org/2000/svg">
<path d="M10.232 36V8.16H0.632V2.4H26.264V8.16H16.424V36H10.232ZM34.6858 36.48C32.0298 36.48 29.6778 35.936 27.6298 34.848C25.6138 33.728 24.0298 32.208 22.8778 30.288C21.7578 28.336 21.1978 26.096 21.1978 23.568C21.1978 21.584 21.5178 19.776 22.1578 18.144C22.7978 16.512 23.6938 15.104 24.8458 13.92C25.9978 12.704 27.3578 11.776 28.9258 11.136C30.5258 10.464 32.2538 10.128 34.1098 10.128C35.8058 10.128 37.3578 10.448 38.7658 11.088C40.2058 11.728 41.4538 12.608 42.5098 13.728C43.5658 14.816 44.3658 16.128 44.9098 17.664C45.4858 19.168 45.7578 20.816 45.7258 22.608L45.6778 24.72H25.2298L24.0778 20.64H40.7338L40.0138 21.456V20.352C39.9178 19.392 39.5978 18.544 39.0538 17.808C38.5098 17.04 37.8058 16.448 36.9418 16.032C36.1098 15.584 35.1818 15.36 34.1578 15.36C32.5898 15.36 31.2618 15.664 30.1738 16.272C29.0858 16.848 28.2538 17.712 27.6778 18.864C27.1338 20.016 26.8618 21.44 26.8618 23.136C26.8618 24.768 27.1978 26.192 27.8698 27.408C28.5738 28.624 29.5658 29.568 30.8458 30.24C32.1258 30.912 33.6138 31.248 35.3098 31.248C36.4938 31.248 37.5818 31.056 38.5738 30.672C39.5978 30.288 40.6858 29.6 41.8378 28.608L44.7178 32.64C43.8538 33.44 42.8618 34.128 41.7418 34.704C40.6538 35.248 39.5018 35.68 38.2858 36C37.0698 36.32 35.8698 36.48 34.6858 36.48ZM61.1548 36.48C60.0348 36.48 58.9468 36.32 57.8908 36C56.8348 35.648 55.8588 35.184 54.9628 34.608C54.0988 34.032 53.3788 33.392 52.8028 32.688C52.2268 31.952 51.8428 31.216 51.6508 30.48L53.0428 29.856L52.8988 35.856H47.2348V0.48H53.0908V16.512L52.0828 16.08C52.2428 15.312 52.5948 14.592 53.1388 13.92C53.6828 13.216 54.3708 12.592 55.2028 12.048C56.0348 11.472 56.9468 11.024 57.9388 10.704C58.9308 10.352 59.9548 10.176 61.0108 10.176C63.2508 10.176 65.2348 10.752 66.9628 11.904C68.7228 13.024 70.0988 14.576 71.0908 16.56C72.1148 18.512 72.6268 20.768 72.6268 23.328C72.6268 25.856 72.1308 28.112 71.1388 30.096C70.1468 32.08 68.7708 33.648 67.0108 34.8C65.2828 35.92 63.3308 36.48 61.1548 36.48ZM59.9548 31.296C61.2988 31.296 62.4988 30.96 63.5548 30.288C64.6108 29.584 65.4428 28.64 66.0508 27.456C66.6588 26.24 66.9628 24.864 66.9628 23.328C66.9628 21.76 66.6588 20.384 66.0508 19.2C65.4748 17.984 64.6588 17.04 63.6028 16.368C62.5468 15.696 61.3308 15.36 59.9548 15.36C58.5468 15.36 57.3148 15.696 56.2588 16.368C55.2028 17.04 54.3708 17.984 53.7628 19.2C53.1548 20.384 52.8508 21.76 52.8508 23.328C52.8508 24.864 53.1548 26.24 53.7628 27.456C54.3708 28.64 55.2028 29.584 56.2588 30.288C57.3148 30.96 58.5468 31.296 59.9548 31.296ZM88.091 36.48C86.971 36.48 85.883 36.32 84.827 36C83.771 35.648 82.795 35.184 81.899 34.608C81.035 34.032 80.315 33.392 79.739 32.688C79.163 31.952 78.779 31.216 78.587 30.48L79.979 29.856L79.835 35.856H74.171V0.48H80.027V16.512L79.019 16.08C79.179 15.312 79.531 14.592 80.075 13.92C80.619 13.216 81.307 12.592 82.139 12.048C82.971 11.472 83.883 11.024 84.875 10.704C85.867 10.352 86.891 10.176 87.947 10.176C90.187 10.176 92.171 10.752 93.899 11.904C95.659 13.024 97.035 14.576 98.027 16.56C99.051 18.512 99.563 20.768 99.563 23.328C99.563 25.856 99.067 28.112 98.075 30.096C97.083 32.08 95.707 33.648 93.947 34.8C92.219 35.92 90.267 36.48 88.091 36.48ZM86.891 31.296C88.235 31.296 89.435 30.96 90.491 30.288C91.547 29.584 92.379 28.64 92.987 27.456C93.595 26.24 93.899 24.864 93.899 23.328C93.899 21.76 93.595 20.384 92.987 19.2C92.411 17.984 91.595 17.04 90.539 16.368C89.483 15.696 88.267 15.36 86.891 15.36C85.483 15.36 84.251 15.696 83.195 16.368C82.139 17.04 81.307 17.984 80.699 19.2C80.091 20.384 79.787 21.76 79.787 23.328C79.787 24.864 80.091 26.24 80.699 27.456C81.307 28.64 82.139 29.584 83.195 30.288C84.251 30.96 85.483 31.296 86.891 31.296ZM101.155 36V0.48H107.011V36H101.155ZM121.665 36.48C119.009 36.48 116.657 35.936 114.609 34.848C112.593 33.728 111.009 32.208 109.857 30.288C108.737 28.336 108.177 26.096 108.177 23.568C108.177 21.584 108.497 19.776 109.137 18.144C109.777 16.512 110.673 15.104 111.825 13.92C112.977 12.704 114.337 11.776 115.905 11.136C117.505 10.464 119.233 10.128 121.089 10.128C122.785 10.128 124.337 10.448 125.745 11.088C127.185 11.728 128.433 12.608 129.489 13.728C130.545 14.816 131.345 16.128 131.889 17.664C132.465 19.168 132.737 20.816 132.705 22.608L132.657 24.72H112.209L111.057 20.64H127.713L126.993 21.456V20.352C126.897 19.392 126.577 18.544 126.033 17.808C125.489 17.04 124.785 16.448 123.921 16.032C123.089 15.584 122.161 15.36 121.137 15.36C119.569 15.36 118.241 15.664 117.153 16.272C116.065 16.848 115.233 17.712 114.657 18.864C114.113 20.016 113.841 21.44 113.841 23.136C113.841 24.768 114.177 26.192 114.849 27.408C115.553 28.624 116.545 29.568 117.825 30.24C119.105 30.912 120.593 31.248 122.289 31.248C123.473 31.248 124.561 31.056 125.553 30.672C126.577 30.288 127.665 29.6 128.817 28.608L131.697 32.64C130.833 33.44 129.841 34.128 128.721 34.704C127.633 35.248 126.481 35.68 125.265 36C124.049 36.32 122.849 36.48 121.665 36.48Z" fill="url(#paint0_linear_22_6)"/>
<defs>
<linearGradient id="paint0_linear_22_6" x1="57" y1="-9" x2="171.5" y2="100" gradientUnits="userSpaceOnUse">
<stop stop-color="white"/>
<stop offset="0.86409" stop-color="white" stop-opacity="0.22"/>
<stop offset="1" stop-color="white" stop-opacity="0"/>
</linearGradient>
</defs>
</svg>
